<svg xmlns="http://www.w3.org/2000/svg" viewBox="0 0 1024 1024">
  <!-- Definitions for gradients -->
  <defs>
    <!-- Background gradient - deep black to dark blue-black -->
    <linearGradient id="bgGradient" x1="0%" y1="0%" x2="100%" y2="100%">
      <stop offset="0%" style="stop-color:#000000;stop-opacity:1" />
      <stop offset="100%" style="stop-color:#0a0a1f;stop-opacity:1" />
    </linearGradient>
    
    <!-- Teal border gradient - brighter at top -->
    <linearGradient id="tealGradient" x1="0%" y1="0%" x2="0%" y2="100%">
      <stop offset="0%" style="stop-color:#00ffd9;stop-opacity:1" />
      <stop offset="100%" style="stop-color:#00b3c7;stop-opacity:1" />
    </linearGradient>
    
    <!-- Purple line gradient - brighter in center -->
    <linearGradient id="purpleGradient" x1="0%" y1="0%" x2="0%" y2="100%">
      <stop offset="0%" style="stop-color:#c985ff;stop-opacity:1" />
      <stop offset="50%" style="stop-color:#b967ff;stop-opacity:1" />
      <stop offset="100%" style="stop-color:#9345e6;stop-opacity:1" />
    </linearGradient>
    
    <!-- Shine effect -->
    <radialGradient id="shineGradient" cx="30%" cy="30%" r="70%" fx="30%" fy="30%">
      <stop offset="0%" style="stop-color:#ffffff;stop-opacity:0.1" />
      <stop offset="100%" style="stop-color:#ffffff;stop-opacity:0" />
    </radialGradient>
  </defs>

  <!-- Rounded square background with gradient -->
  <rect width="1024" height="1024" rx="180" ry="180" fill="url(#bgGradient)" />
  
  <!-- Tab shape with gradient border -->
  <path d="M256,330 L256,768 L768,768 L768,330 L614,330 
           C600,330 590,320 590,306 L590,256 L434,256 
           L434,306 C434,320 424,330 410,330 Z" 
        fill="none" 
        stroke="url(#tealGradient)" 
        stroke-width="24" 
        stroke-linejoin="round" />
  
  <!-- Three vertical lines with gradient -->
  <rect x="392" y="410" width="36" height="280" rx="18" ry="18" fill="url(#purpleGradient)" />
  <rect x="494" y="410" width="36" height="280" rx="18" ry="18" fill="url(#purpleGradient)" />
  <rect x="596" y="410" width="36" height="280" rx="18" ry="18" fill="url(#purpleGradient)" />
  
  <!-- Subtle shine overlay -->
  <rect width="1024" height="1024" rx="180" ry="180" fill="url(#shineGradient)" />
</svg>